<?xml version="1.0" ?><svg data-name="Layer 1" id="Layer_1" viewBox="0 0 65 65" xmlns="http://www.w3.org/2000/svg"><title/><path d="M41.215,52.843a.75.75,0,0,1-.226-1.465A19.294,19.294,0,0,0,54.068,29.027a.75.75,0,0,1,1.469-.306,20.816,20.816,0,0,1-14.1,24.087A.739.739,0,0,1,41.215,52.843ZM20.7,47.635a.749.749,0,0,1-.54-.23,20.785,20.785,0,0,1-5.814-13.9.752.752,0,0,1,.73-.771.77.77,0,0,1,.769.73,19.287,19.287,0,0,0,5.4,12.9.75.75,0,0,1-.54,1.271Zm5.086-31.666a.75.75,0,0,1-.35-1.413A21.047,21.047,0,0,1,40.4,12.815a.75.75,0,0,1-.378,1.452,19.532,19.532,0,0,0-13.89,1.615A.743.743,0,0,1,25.787,15.969Z" style="fill:#ffffff"/><path d="M18.907,32.03a9.88,9.88,0,0,1-6.989-16.868h0A9.884,9.884,0,1,1,18.907,32.03Zm0-18.26a8.359,8.359,0,0,0-5.929,2.453h0a8.392,8.392,0,1,0,5.929-2.453Zm-6.459,1.922h0Z" style="fill:#ffffff"/><path d="M17.61,26.575a5.027,5.027,0,0,1-1.459-.215h0a2.815,2.815,0,0,1-2.115-3.1A2.2,2.2,0,0,1,16.4,21.431a.607.607,0,0,0,.436-.105.651.651,0,0,0,.12-.42,3.858,3.858,0,0,1,1.148-3.2,3.621,3.621,0,0,1,3.108-.744,3.089,3.089,0,0,1,2.174,1.566,4.793,4.793,0,0,1,.208,3.923A7.111,7.111,0,0,1,17.61,26.575Zm-1.027-1.651c2.636.786,5.13-1.75,5.614-3.01a3.277,3.277,0,0,0-.115-2.647,1.578,1.578,0,0,0-1.13-.827,2.175,2.175,0,0,0-1.851.391,2.372,2.372,0,0,0-.645,1.98,2.141,2.141,0,0,1-.526,1.543,2.03,2.03,0,0,1-1.578.577.7.7,0,0,0-.837.575,1.339,1.339,0,0,0,1.068,1.418Z" style="fill:#ffffff"/><path d="M21.084,18.452a.777.777,0,0,1-.189-.024.75.75,0,0,1-.537-.914l.327-1.263a.751.751,0,0,1,1.453.377l-.328,1.263A.751.751,0,0,1,21.084,18.452Z" style="fill:#ffffff"/><path d="M14.846,23.829a.782.782,0,0,1-.237-.038l-1.544-.515a.75.75,0,0,1,.475-1.423l1.543.514a.75.75,0,0,1-.237,1.462Z" style="fill:#ffffff"/><path d="M18.3,19.1a.753.753,0,0,1-.469-.164l-.979-.785a.75.75,0,0,1,.937-1.172l.98.785A.75.75,0,0,1,18.3,19.1Z" style="fill:#ffffff"/><path d="M23.054,20.424a.75.75,0,0,1-.319-1.43l1.152-.539a.75.75,0,1,1,.635,1.359l-1.151.539A.746.746,0,0,1,23.054,20.424Z" style="fill:#ffffff"/><path d="M23.3,24.882a.751.751,0,0,1-.457-.155l-.955-.735A.75.75,0,1,1,22.8,22.8l.955.734a.75.75,0,0,1-.457,1.345Z" style="fill:#ffffff"/><path d="M19.7,27.5a.75.75,0,0,1-.686-.447L18.545,26a.75.75,0,1,1,1.372-.606l.466,1.054A.751.751,0,0,1,19.7,27.5Z" style="fill:#ffffff"/><path d="M15.115,27.405a.75.75,0,0,1-.651-1.122l.686-1.2a.75.75,0,0,1,1.3.744l-.686,1.2A.749.749,0,0,1,15.115,27.405Z" style="fill:#ffffff"/><path d="M35.158,50.806A17.849,17.849,0,0,1,17.409,31.137a.75.75,0,0,1,1.492.152,16.71,16.71,0,0,0-.085,1.674,16.338,16.338,0,1,0,8.518-14.349.75.75,0,1,1-.719-1.316,17.843,17.843,0,1,1,8.543,33.508Z" style="fill:#ffffff"/><path d="M15.115,27.405a.75.75,0,0,1-.651-1.122l.686-1.2a.75.75,0,0,1,1.3.744l-.686,1.2A.749.749,0,0,1,15.115,27.405Z" style="fill:#ffffff"/><path d="M40.8,44.808a4.506,4.506,0,0,1-.666-.05c-1.541-.235-2.659-1.225-2.659-2.355V34.271a7.8,7.8,0,0,1-4.661-.214.788.788,0,0,1-.2-.094c-2.379-1.586-3.508-3.3-3.354-5.081.23-2.664,3.323-4.521,4.547-5.155a5.924,5.924,0,0,1,1.455-4.47c2.356-2.6,6.68-2.568,6.868-2.569a.75.75,0,0,1-.012,1.5H42.1c-.233,0-3.882.036-5.728,2.08a4.669,4.669,0,0,0-1.026,3.823.751.751,0,0,1-.441.77c-1.1.488-3.979,2.182-4.148,4.152-.1,1.177.774,2.4,2.6,3.639,3.1.908,4.348-.147,4.361-.158a.759.759,0,0,1,.811-.126.746.746,0,0,1,.448.677V42.4c0,.277.526.742,1.384.871,1.5.235,3.446-.622,4.4-3.69a15.372,15.372,0,0,0,.1-2.2c.007-3.255.017-7.712,6.786-8.227a.758.758,0,0,1,.8.692.75.75,0,0,1-.692.8c-5.385.409-5.392,3.482-5.4,6.734a15.087,15.087,0,0,1-.142,2.547C45.09,43.579,42.734,44.808,40.8,44.808Z" style="fill:#ffffff"/><path d="M25.979,47.367a.749.749,0,0,1-.709-.993c.415-1.214-.568-2.411-1.357-3.373-.141-.17-.273-.331-.389-.481-.994-1.287-.513-2.252.284-3.851.14-.281.3-.6.466-.95.5-1.053.944-2.087.748-2.526-.124-.28-.623-.479-1.019-.595a5.217,5.217,0,0,1-3.3-3.407.75.75,0,0,1,1.442-.411,3.758,3.758,0,0,0,2.285,2.378,2.906,2.906,0,0,1,1.965,1.426c.466,1.047-.072,2.333-.767,3.783-.173.362-.333.683-.476.97-.83,1.667-.817,1.777-.44,2.265.109.14.231.29.361.448.918,1.116,2.3,2.8,1.618,4.81A.75.75,0,0,1,25.979,47.367Z" style="fill:#ffffff"/></svg>